<?xml version="1.0" encoding="UTF-8"?>
<svg width="900" height="600" viewBox="0 0 900 600" fill="none" xmlns="http://www.w3.org/2000/svg">
  <rect width="900" height="600" fill="#F8FAFC"/>
  <path d="M450 300m-200 0a200 200 0 1 0 400 0a200 200 0 1 0-400 0" fill="#E2E8F0"/>
  <path d="M450 260c-44.183 0-80 35.817-80 80s35.817 80 80 80 80-35.817 80-80-35.817-80-80-80zm0 120c-22.091 0-40-17.909-40-40s17.909-40 40-40 40 17.909 40 40-17.909 40-40 40z" fill="#94A3B8"/>
  <path d="M450 220c-66.274 0-120 53.726-120 120s53.726 120 120 120 120-53.726 120-120-53.726-120-120-120zm0 200c-44.183 0-80-35.817-80-80s35.817-80 80-80 80 35.817 80 80-35.817 80-80 80z" fill="#64748B"/>
</svg>
